<svg width="261" height="50" viewBox="0 0 261 50" fill="none" xmlns="http://www.w3.org/2000/svg">
<g clip-path="url(#clip0_31_247)">
<path d="M34.3462 43.4123V44.9507H12.6538V43.4123C12.6538 42.5646 13.4655 41.8738 14.4615 41.8738H18.1004C18.1962 39.9538 19.6605 38.3507 21.6923 37.7369V19.6984C20.7397 19.1861 20.1015 18.2877 20.1015 17.2569H21.6923H25.3077H26.8985C26.8985 18.2877 26.2603 19.1861 25.3077 19.6984V37.7353C27.3395 38.3492 28.8038 39.9523 28.8996 41.8723H32.5385C33.5345 41.8738 34.3462 42.5646 34.3462 43.4123ZM47 29.5646C45.675 32.74 42.1463 35.0307 37.9615 35.0307C33.7767 35.0307 30.2481 32.7384 28.9231 29.5646H31.0092L37.1155 15.7907C37.3795 15.1907 38.5418 15.1907 38.8075 15.7907L44.9139 29.5646H47ZM42.9815 29.5646L37.9615 18.243L32.9416 29.5661H42.9815V29.5646ZM9.03846 14.1969C9.85735 14.1969 10.5244 13.7307 10.7558 13.0984C11.3541 12.9046 11.9669 12.643 12.596 12.3723C13.9789 11.7784 15.5462 11.103 17.1731 11.103C18.7349 11.103 19.7111 11.7169 20.2697 12.24C20.248 12.3723 20.2227 12.5046 20.2227 12.6415C20.2227 14.1815 21.6905 15.4307 23.5 15.4307C25.3095 15.4307 26.7773 14.1815 26.7773 12.6415C26.7773 12.5046 26.752 12.3738 26.7303 12.2415C27.2871 11.72 28.2633 11.103 29.8269 11.103C31.4538 11.103 33.0211 11.7769 34.4022 12.3707C35.0331 12.6415 35.6459 12.903 36.2442 13.0969C36.4756 13.7292 37.1427 14.1953 37.9615 14.1953C38.9702 14.1953 39.7873 13.5 39.7873 12.6415C39.7873 11.783 38.9702 11.0877 37.9615 11.0877C37.4409 11.0877 36.9763 11.2784 36.6437 11.5769C36.1972 11.4169 35.7146 11.2123 35.2175 10.9984C33.6556 10.3261 31.8859 9.56458 29.8269 9.56458C28.0265 9.56458 26.7719 10.1477 25.9205 10.7753C25.5391 10.4169 25.051 10.1492 24.496 9.99689C25.1703 9.68919 25.6439 9.10304 25.6439 8.40919C25.6439 7.4015 23.5 5.04919 23.5 5.04919C23.5 5.04919 21.3561 7.4015 21.3561 8.40919C21.3561 9.10458 21.8297 9.68919 22.504 9.99689C21.949 10.1477 21.4609 10.4169 21.0795 10.7753C20.2281 10.1477 18.9735 9.56458 17.1731 9.56458C15.1141 9.56458 13.3426 10.3261 11.7807 10.9984C11.2836 11.2138 10.8028 11.4184 10.3563 11.5769C10.0237 11.28 9.55908 11.0877 9.03846 11.0877C8.02977 11.0877 7.21269 11.783 7.21269 12.6415C7.21269 13.5 8.02977 14.1969 9.03846 14.1969ZM9.03846 35.0323C4.85365 35.0323 1.32504 32.74 0 29.5661H2.08608L8.19246 15.7923C8.45638 15.1923 9.61873 15.1923 9.88446 15.7923L15.9908 29.5661H18.0769C16.7519 32.74 13.2233 35.0323 9.03846 35.0323ZM14.0584 29.5646L9.03846 18.243L4.0185 29.5661H14.0584V29.5646Z" fill="white"/>
</g>
<path d="M68.4076 25.192C67.1276 25.192 66.0076 24.992 65.0476 24.592C64.0876 24.176 63.3436 23.592 62.8156 22.84C62.3036 22.072 62.0476 21.184 62.0476 20.176V19.648C62.0476 19.568 62.0716 19.504 62.1196 19.456C62.1836 19.392 62.2556 19.36 62.3356 19.36H65.0716C65.1516 19.36 65.2156 19.392 65.2636 19.456C65.3276 19.504 65.3596 19.568 65.3596 19.648V20.008C65.3596 20.648 65.6556 21.192 66.2476 21.64C66.8396 22.072 67.6396 22.288 68.6476 22.288C69.4956 22.288 70.1276 22.112 70.5436 21.76C70.9596 21.392 71.1676 20.944 71.1676 20.416C71.1676 20.032 71.0396 19.712 70.7836 19.456C70.5276 19.184 70.1756 18.952 69.7276 18.76C69.2956 18.552 68.5996 18.272 67.6396 17.92C66.5676 17.552 65.6556 17.176 64.9036 16.792C64.1676 16.408 63.5436 15.888 63.0316 15.232C62.5356 14.56 62.2876 13.736 62.2876 12.76C62.2876 11.8 62.5356 10.96 63.0316 10.24C63.5276 9.52 64.2156 8.968 65.0956 8.584C65.9756 8.2 66.9916 8.008 68.1436 8.008C69.3596 8.008 70.4396 8.224 71.3836 8.656C72.3436 9.088 73.0876 9.696 73.6156 10.48C74.1596 11.248 74.4316 12.144 74.4316 13.168V13.528C74.4316 13.608 74.3996 13.68 74.3356 13.744C74.2876 13.792 74.2236 13.816 74.1436 13.816H71.3836C71.3036 13.816 71.2316 13.792 71.1676 13.744C71.1196 13.68 71.0956 13.608 71.0956 13.528V13.336C71.0956 12.664 70.8156 12.096 70.2556 11.632C69.7116 11.152 68.9596 10.912 67.9996 10.912C67.2476 10.912 66.6556 11.072 66.2236 11.392C65.8076 11.712 65.5996 12.152 65.5996 12.712C65.5996 13.112 65.7196 13.448 65.9596 13.72C66.2156 13.992 66.5836 14.24 67.0636 14.464C67.5596 14.672 68.3196 14.96 69.3436 15.328C70.4796 15.744 71.3676 16.112 72.0076 16.432C72.6636 16.752 73.2476 17.232 73.7596 17.872C74.2876 18.496 74.5516 19.312 74.5516 20.32C74.5516 21.824 73.9996 23.016 72.8956 23.896C71.7916 24.76 70.2956 25.192 68.4076 25.192ZM87.601 25C87.441 25 87.337 24.92 87.289 24.76L86.569 22.408C86.537 22.344 86.497 22.312 86.449 22.312H80.545C80.497 22.312 80.457 22.344 80.425 22.408L79.729 24.76C79.681 24.92 79.577 25 79.417 25H76.369C76.273 25 76.201 24.976 76.153 24.928C76.105 24.864 76.097 24.776 76.129 24.664L81.313 8.44C81.361 8.28 81.465 8.2 81.625 8.2H85.393C85.553 8.2 85.657 8.28 85.705 8.44L90.889 24.664C90.905 24.696 90.913 24.736 90.913 24.784C90.913 24.928 90.825 25 90.649 25H87.601ZM81.289 19.552C81.273 19.648 81.305 19.696 81.385 19.696H85.609C85.705 19.696 85.737 19.648 85.705 19.552L83.545 12.424C83.529 12.36 83.505 12.336 83.473 12.352C83.441 12.352 83.417 12.376 83.401 12.424L81.289 19.552ZM102.671 8.488C102.671 8.408 102.695 8.344 102.743 8.296C102.807 8.232 102.879 8.2 102.959 8.2H105.767C105.847 8.2 105.911 8.232 105.959 8.296C106.023 8.344 106.055 8.408 106.055 8.488V24.712C106.055 24.792 106.023 24.864 105.959 24.928C105.911 24.976 105.847 25 105.767 25H103.055C102.895 25 102.783 24.936 102.719 24.808L96.5026 14.536C96.4706 14.488 96.4386 14.472 96.4066 14.488C96.3746 14.488 96.3586 14.52 96.3586 14.584L96.4066 24.712C96.4066 24.792 96.3746 24.864 96.3106 24.928C96.2626 24.976 96.1986 25 96.1186 25H93.3106C93.2306 25 93.1586 24.976 93.0946 24.928C93.0466 24.864 93.0226 24.792 93.0226 24.712V8.488C93.0226 8.408 93.0466 8.344 93.0946 8.296C93.1586 8.232 93.2306 8.2 93.3106 8.2H96.0226C96.1826 8.2 96.2946 8.264 96.3586 8.392L102.551 18.616C102.583 18.664 102.615 18.688 102.647 18.688C102.679 18.672 102.695 18.632 102.695 18.568L102.671 8.488ZM120.576 8.2C120.656 8.2 120.72 8.232 120.768 8.296C120.832 8.344 120.864 8.408 120.864 8.488V10.84C120.864 10.92 120.832 10.992 120.768 11.056C120.72 11.104 120.656 11.128 120.576 11.128H116.28C116.2 11.128 116.16 11.168 116.16 11.248V24.712C116.16 24.792 116.128 24.864 116.064 24.928C116.016 24.976 115.952 25 115.872 25H113.064C112.984 25 112.912 24.976 112.848 24.928C112.8 24.864 112.776 24.792 112.776 24.712V11.248C112.776 11.168 112.736 11.128 112.656 11.128H108.48C108.4 11.128 108.328 11.104 108.264 11.056C108.216 10.992 108.192 10.92 108.192 10.84V8.488C108.192 8.408 108.216 8.344 108.264 8.296C108.328 8.232 108.4 8.2 108.48 8.2H120.576ZM132.156 25C131.996 25 131.892 24.92 131.844 24.76L131.124 22.408C131.092 22.344 131.052 22.312 131.004 22.312H125.1C125.052 22.312 125.012 22.344 124.98 22.408L124.284 24.76C124.236 24.92 124.132 25 123.972 25H120.924C120.828 25 120.756 24.976 120.708 24.928C120.66 24.864 120.652 24.776 120.684 24.664L125.868 8.44C125.916 8.28 126.02 8.2 126.18 8.2H129.948C130.108 8.2 130.212 8.28 130.26 8.44L135.444 24.664C135.46 24.696 135.468 24.736 135.468 24.784C135.468 24.928 135.38 25 135.204 25H132.156ZM125.844 19.552C125.828 19.648 125.86 19.696 125.94 19.696H130.164C130.26 19.696 130.292 19.648 130.26 19.552L128.1 12.424C128.084 12.36 128.06 12.336 128.028 12.352C127.996 12.352 127.972 12.376 127.956 12.424L125.844 19.552ZM147.225 8.488C147.225 8.408 147.249 8.344 147.297 8.296C147.361 8.232 147.433 8.2 147.513 8.2H150.321C150.401 8.2 150.465 8.232 150.513 8.296C150.577 8.344 150.609 8.408 150.609 8.488V24.712C150.609 24.792 150.577 24.864 150.513 24.928C150.465 24.976 150.401 25 150.321 25H147.609C147.449 25 147.337 24.936 147.273 24.808L141.057 14.536C141.025 14.488 140.993 14.472 140.961 14.488C140.929 14.488 140.913 14.52 140.913 14.584L140.961 24.712C140.961 24.792 140.929 24.864 140.865 24.928C140.817 24.976 140.753 25 140.673 25H137.865C137.785 25 137.713 24.976 137.649 24.928C137.601 24.864 137.577 24.792 137.577 24.712V8.488C137.577 8.408 137.601 8.344 137.649 8.296C137.713 8.232 137.785 8.2 137.865 8.2H140.577C140.737 8.2 140.849 8.264 140.913 8.392L147.105 18.616C147.137 18.664 147.169 18.688 147.201 18.688C147.233 18.672 147.249 18.632 147.249 18.568L147.225 8.488ZM164.218 25C164.058 25 163.954 24.92 163.906 24.76L163.186 22.408C163.154 22.344 163.114 22.312 163.066 22.312H157.162C157.114 22.312 157.074 22.344 157.042 22.408L156.346 24.76C156.298 24.92 156.194 25 156.034 25H152.986C152.89 25 152.818 24.976 152.77 24.928C152.722 24.864 152.714 24.776 152.746 24.664L157.93 8.44C157.978 8.28 158.082 8.2 158.242 8.2H162.01C162.17 8.2 162.274 8.28 162.322 8.44L167.506 24.664C167.522 24.696 167.53 24.736 167.53 24.784C167.53 24.928 167.442 25 167.266 25H164.218ZM157.906 19.552C157.89 19.648 157.922 19.696 158.002 19.696H162.226C162.322 19.696 162.354 19.648 162.322 19.552L160.162 12.424C160.146 12.36 160.122 12.336 160.09 12.352C160.058 12.352 160.034 12.376 160.018 12.424L157.906 19.552ZM185.244 8.392C185.324 8.264 185.436 8.2 185.58 8.2H188.388C188.468 8.2 188.532 8.232 188.58 8.296C188.644 8.344 188.676 8.408 188.676 8.488V24.712C188.676 24.792 188.644 24.864 188.58 24.928C188.532 24.976 188.468 25 188.388 25H185.58C185.5 25 185.428 24.976 185.364 24.928C185.316 24.864 185.292 24.792 185.292 24.712V14.128C185.292 14.064 185.276 14.032 185.244 14.032C185.212 14.032 185.18 14.056 185.148 14.104L182.604 18.088C182.524 18.216 182.412 18.28 182.268 18.28H180.852C180.708 18.28 180.596 18.216 180.516 18.088L177.972 14.104C177.94 14.056 177.908 14.04 177.876 14.056C177.844 14.056 177.828 14.088 177.828 14.152V24.712C177.828 24.792 177.796 24.864 177.732 24.928C177.684 24.976 177.62 25 177.54 25H174.732C174.652 25 174.58 24.976 174.516 24.928C174.468 24.864 174.444 24.792 174.444 24.712V8.488C174.444 8.408 174.468 8.344 174.516 8.296C174.58 8.232 174.652 8.2 174.732 8.2H177.54C177.684 8.2 177.796 8.264 177.876 8.392L181.476 13.984C181.524 14.08 181.572 14.08 181.62 13.984L185.244 8.392ZM197.577 25.264C196.329 25.264 195.225 25.008 194.265 24.496C193.321 23.984 192.585 23.272 192.057 22.36C191.529 21.432 191.265 20.368 191.265 19.168V14.032C191.265 12.848 191.529 11.8 192.057 10.888C192.585 9.976 193.321 9.272 194.265 8.776C195.225 8.264 196.329 8.008 197.577 8.008C198.841 8.008 199.945 8.264 200.889 8.776C201.849 9.272 202.593 9.976 203.121 10.888C203.649 11.8 203.913 12.848 203.913 14.032V19.168C203.913 20.368 203.649 21.432 203.121 22.36C202.593 23.288 201.849 24.008 200.889 24.52C199.945 25.016 198.841 25.264 197.577 25.264ZM197.577 22.36C198.457 22.36 199.169 22.08 199.713 21.52C200.257 20.96 200.529 20.216 200.529 19.288V14.008C200.529 13.08 200.257 12.336 199.713 11.776C199.185 11.2 198.473 10.912 197.577 10.912C196.697 10.912 195.985 11.2 195.441 11.776C194.913 12.336 194.649 13.08 194.649 14.008V19.288C194.649 20.216 194.913 20.96 195.441 21.52C195.985 22.08 196.697 22.36 197.577 22.36ZM215.723 25C215.563 25 215.451 24.928 215.387 24.784L212.387 18.136C212.355 18.072 212.307 18.04 212.243 18.04H210.011C209.931 18.04 209.891 18.08 209.891 18.16V24.712C209.891 24.792 209.859 24.864 209.795 24.928C209.747 24.976 209.683 25 209.603 25H206.795C206.715 25 206.643 24.976 206.579 24.928C206.531 24.864 206.507 24.792 206.507 24.712V8.488C206.507 8.408 206.531 8.344 206.579 8.296C206.643 8.232 206.715 8.2 206.795 8.2H213.659C214.683 8.2 215.579 8.408 216.347 8.824C217.131 9.24 217.731 9.832 218.147 10.6C218.579 11.368 218.795 12.256 218.795 13.264C218.795 14.352 218.523 15.288 217.979 16.072C217.435 16.84 216.675 17.384 215.699 17.704C215.619 17.736 215.595 17.792 215.627 17.872L218.891 24.664C218.923 24.728 218.939 24.776 218.939 24.808C218.939 24.936 218.851 25 218.675 25H215.723ZM210.011 11.104C209.931 11.104 209.891 11.144 209.891 11.224V15.328C209.891 15.408 209.931 15.448 210.011 15.448H213.155C213.827 15.448 214.371 15.248 214.787 14.848C215.219 14.448 215.435 13.928 215.435 13.288C215.435 12.648 215.219 12.128 214.787 11.728C214.371 11.312 213.827 11.104 213.155 11.104H210.011ZM232.281 25C232.121 25 232.017 24.92 231.969 24.76L231.249 22.408C231.217 22.344 231.177 22.312 231.129 22.312H225.225C225.177 22.312 225.137 22.344 225.105 22.408L224.409 24.76C224.361 24.92 224.257 25 224.097 25H221.049C220.953 25 220.881 24.976 220.833 24.928C220.785 24.864 220.777 24.776 220.809 24.664L225.993 8.44C226.041 8.28 226.145 8.2 226.305 8.2H230.073C230.233 8.2 230.337 8.28 230.385 8.44L235.569 24.664C235.585 24.696 235.593 24.736 235.593 24.784C235.593 24.928 235.505 25 235.329 25H232.281ZM225.969 19.552C225.953 19.648 225.985 19.696 226.065 19.696H230.289C230.385 19.696 230.417 19.648 230.385 19.552L228.225 12.424C228.209 12.36 228.185 12.336 228.153 12.352C228.121 12.352 228.097 12.376 228.081 12.424L225.969 19.552ZM237.99 25C237.91 25 237.838 24.976 237.774 24.928C237.726 24.864 237.702 24.792 237.702 24.712V8.488C237.702 8.408 237.726 8.344 237.774 8.296C237.838 8.232 237.91 8.2 237.99 8.2H240.798C240.878 8.2 240.942 8.232 240.99 8.296C241.054 8.344 241.086 8.408 241.086 8.488V24.712C241.086 24.792 241.054 24.864 240.99 24.928C240.942 24.976 240.878 25 240.798 25H237.99ZM249.767 25.192C248.487 25.192 247.367 24.992 246.407 24.592C245.447 24.176 244.703 23.592 244.175 22.84C243.663 22.072 243.407 21.184 243.407 20.176V19.648C243.407 19.568 243.431 19.504 243.479 19.456C243.543 19.392 243.615 19.36 243.695 19.36H246.431C246.511 19.36 246.575 19.392 246.623 19.456C246.687 19.504 246.719 19.568 246.719 19.648V20.008C246.719 20.648 247.015 21.192 247.607 21.64C248.199 22.072 248.999 22.288 250.007 22.288C250.855 22.288 251.487 22.112 251.903 21.76C252.319 21.392 252.527 20.944 252.527 20.416C252.527 20.032 252.399 19.712 252.143 19.456C251.887 19.184 251.535 18.952 251.087 18.76C250.655 18.552 249.959 18.272 248.999 17.92C247.927 17.552 247.015 17.176 246.263 16.792C245.527 16.408 244.903 15.888 244.391 15.232C243.895 14.56 243.647 13.736 243.647 12.76C243.647 11.8 243.895 10.96 244.391 10.24C244.887 9.52 245.575 8.968 246.455 8.584C247.335 8.2 248.351 8.008 249.503 8.008C250.719 8.008 251.799 8.224 252.743 8.656C253.703 9.088 254.447 9.696 254.975 10.48C255.519 11.248 255.791 12.144 255.791 13.168V13.528C255.791 13.608 255.759 13.68 255.695 13.744C255.647 13.792 255.583 13.816 255.503 13.816H252.743C252.663 13.816 252.591 13.792 252.527 13.744C252.479 13.68 252.455 13.608 252.455 13.528V13.336C252.455 12.664 252.175 12.096 251.615 11.632C251.071 11.152 250.319 10.912 249.359 10.912C248.607 10.912 248.015 11.072 247.583 11.392C247.167 11.712 246.959 12.152 246.959 12.712C246.959 13.112 247.079 13.448 247.319 13.72C247.575 13.992 247.943 14.24 248.423 14.464C248.919 14.672 249.679 14.96 250.703 15.328C251.839 15.744 252.727 16.112 253.367 16.432C254.023 16.752 254.607 17.232 255.119 17.872C255.647 18.496 255.911 19.312 255.911 20.32C255.911 21.824 255.359 23.016 254.255 23.896C253.151 24.76 251.655 25.192 249.767 25.192Z" fill="white"/>
<path d="M65.096 46C64.9893 46 64.92 45.9467 64.888 45.84L64.408 44.272C64.3867 44.2293 64.36 44.208 64.328 44.208H60.392C60.36 44.208 60.3333 44.2293 60.312 44.272L59.848 45.84C59.816 45.9467 59.7467 46 59.64 46H57.608C57.544 46 57.496 45.984 57.464 45.952C57.432 45.9093 57.4267 45.8507 57.448 45.776L60.904 34.96C60.936 34.8533 61.0053 34.8 61.112 34.8H63.624C63.7307 34.8 63.8 34.8533 63.832 34.96L67.288 45.776C67.2987 45.7973 67.304 45.824 67.304 45.856C67.304 45.952 67.2453 46 67.128 46H65.096ZM60.888 42.368C60.8773 42.432 60.8987 42.464 60.952 42.464H63.768C63.832 42.464 63.8533 42.432 63.832 42.368L62.392 37.616C62.3813 37.5733 62.3653 37.5573 62.344 37.568C62.3227 37.568 62.3067 37.584 62.296 37.616L60.888 42.368ZM68.9024 46C68.849 46 68.801 45.984 68.7584 45.952C68.7264 45.9093 68.7104 45.8613 68.7104 45.808V34.992C68.7104 34.9387 68.7264 34.896 68.7584 34.864C68.801 34.8213 68.849 34.8 68.9024 34.8H72.9024C73.7024 34.8 74.401 34.944 74.9984 35.232C75.6064 35.5093 76.0757 35.904 76.4064 36.416C76.737 36.928 76.9024 37.52 76.9024 38.192V42.608C76.9024 43.28 76.737 43.872 76.4064 44.384C76.0757 44.896 75.6064 45.296 74.9984 45.584C74.401 45.8613 73.7024 46 72.9024 46H68.9024ZM70.9664 43.984C70.9664 44.0373 70.993 44.064 71.0464 44.064H72.9824C73.473 44.064 73.8677 43.8987 74.1664 43.568C74.4757 43.2373 74.6357 42.7947 74.6464 42.24V38.56C74.6464 38.0053 74.4917 37.5627 74.1824 37.232C73.8837 36.9013 73.4784 36.736 72.9664 36.736H71.0464C70.993 36.736 70.9664 36.7627 70.9664 36.816V43.984ZM81.1551 46C81.0485 46 80.9791 45.9467 80.9471 45.84L77.6511 35.024L77.6351 34.96C77.6351 34.8533 77.6938 34.8 77.8111 34.8H79.8271C79.9445 34.8 80.0191 34.8533 80.0511 34.96L82.1791 42.768C82.1898 42.8 82.2058 42.816 82.2271 42.816C82.2485 42.816 82.2645 42.8 82.2751 42.768L84.3711 34.96C84.4031 34.8533 84.4778 34.8 84.5951 34.8H86.5631C86.6271 34.8 86.6751 34.8213 86.7071 34.864C86.7391 34.9067 86.7445 34.96 86.7231 35.024L83.3791 45.84C83.3471 45.9467 83.2778 46 83.1711 46H81.1551ZM91.585 46.176C90.753 46.176 90.017 46.0053 89.377 45.664C88.7477 45.3227 88.257 44.848 87.905 44.24C87.553 43.6213 87.377 42.912 87.377 42.112V38.688C87.377 37.8987 87.553 37.2 87.905 36.592C88.257 35.984 88.7477 35.5147 89.377 35.184C90.017 34.8427 90.753 34.672 91.585 34.672C92.4277 34.672 93.1637 34.8427 93.793 35.184C94.433 35.5147 94.929 35.984 95.281 36.592C95.633 37.2 95.809 37.8987 95.809 38.688V42.112C95.809 42.912 95.633 43.6213 95.281 44.24C94.929 44.8587 94.433 45.3387 93.793 45.68C93.1637 46.0107 92.4277 46.176 91.585 46.176ZM91.585 44.24C92.1717 44.24 92.6463 44.0533 93.009 43.68C93.3717 43.3067 93.553 42.8107 93.553 42.192V38.672C93.553 38.0533 93.3717 37.5573 93.009 37.184C92.657 36.8 92.1823 36.608 91.585 36.608C90.9983 36.608 90.5237 36.8 90.161 37.184C89.809 37.5573 89.633 38.0533 89.633 38.672V42.192C89.633 42.8107 89.809 43.3067 90.161 43.68C90.5237 44.0533 90.9983 44.24 91.585 44.24ZM101.475 46.128C100.643 46.128 99.9118 45.968 99.2825 45.648C98.6532 45.3173 98.1678 44.8587 97.8265 44.272C97.4852 43.6853 97.3145 43.008 97.3145 42.24V38.544C97.3145 37.776 97.4852 37.0987 97.8265 36.512C98.1678 35.9253 98.6532 35.472 99.2825 35.152C99.9118 34.832 100.643 34.672 101.475 34.672C102.296 34.672 103.016 34.8267 103.635 35.136C104.264 35.4347 104.749 35.8667 105.091 36.432C105.443 36.9867 105.619 37.632 105.619 38.368C105.619 38.464 105.555 38.5227 105.427 38.544L103.555 38.656H103.523C103.416 38.656 103.363 38.5973 103.363 38.48C103.363 37.9147 103.187 37.4613 102.835 37.12C102.493 36.7787 102.04 36.608 101.475 36.608C100.899 36.608 100.435 36.7787 100.083 37.12C99.7412 37.4613 99.5705 37.9147 99.5705 38.48V42.336C99.5705 42.8907 99.7412 43.3387 100.083 43.68C100.435 44.0213 100.899 44.192 101.475 44.192C102.04 44.192 102.493 44.0213 102.835 43.68C103.187 43.3387 103.363 42.8907 103.363 42.336C103.363 42.2187 103.427 42.16 103.555 42.16L105.427 42.24C105.48 42.24 105.523 42.256 105.555 42.288C105.597 42.32 105.619 42.3573 105.619 42.4C105.619 43.136 105.443 43.7867 105.091 44.352C104.749 44.9173 104.264 45.3547 103.635 45.664C103.016 45.9733 102.296 46.128 101.475 46.128ZM114.143 46C114.036 46 113.967 45.9467 113.935 45.84L113.455 44.272C113.434 44.2293 113.407 44.208 113.375 44.208H109.439C109.407 44.208 109.38 44.2293 109.359 44.272L108.895 45.84C108.863 45.9467 108.794 46 108.687 46H106.655C106.591 46 106.543 45.984 106.511 45.952C106.479 45.9093 106.474 45.8507 106.495 45.776L109.951 34.96C109.983 34.8533 110.052 34.8 110.159 34.8H112.671C112.778 34.8 112.847 34.8533 112.879 34.96L116.335 45.776C116.346 45.7973 116.351 45.824 116.351 45.856C116.351 45.952 116.292 46 116.175 46H114.143ZM109.935 42.368C109.924 42.432 109.946 42.464 109.999 42.464H112.815C112.879 42.464 112.9 42.432 112.879 42.368L111.439 37.616C111.428 37.5733 111.412 37.5573 111.391 37.568C111.37 37.568 111.354 37.584 111.343 37.616L109.935 42.368ZM121.35 46.128C120.518 46.128 119.787 45.968 119.158 45.648C118.528 45.3173 118.043 44.8587 117.702 44.272C117.36 43.6853 117.19 43.008 117.19 42.24V38.544C117.19 37.776 117.36 37.0987 117.702 36.512C118.043 35.9253 118.528 35.472 119.158 35.152C119.787 34.832 120.518 34.672 121.35 34.672C122.171 34.672 122.891 34.8267 123.51 35.136C124.139 35.4347 124.624 35.8667 124.966 36.432C125.318 36.9867 125.494 37.632 125.494 38.368C125.494 38.464 125.43 38.5227 125.302 38.544L123.43 38.656H123.398C123.291 38.656 123.238 38.5973 123.238 38.48C123.238 37.9147 123.062 37.4613 122.71 37.12C122.368 36.7787 121.915 36.608 121.35 36.608C120.774 36.608 120.31 36.7787 119.958 37.12C119.616 37.4613 119.446 37.9147 119.446 38.48V42.336C119.446 42.8907 119.616 43.3387 119.958 43.68C120.31 44.0213 120.774 44.192 121.35 44.192C121.915 44.192 122.368 44.0213 122.71 43.68C123.062 43.3387 123.238 42.8907 123.238 42.336C123.238 42.2187 123.302 42.16 123.43 42.16L125.302 42.24C125.355 42.24 125.398 42.256 125.43 42.288C125.472 42.32 125.494 42.3573 125.494 42.4C125.494 43.136 125.318 43.7867 124.966 44.352C124.624 44.9173 124.139 45.3547 123.51 45.664C122.891 45.9733 122.171 46.128 121.35 46.128ZM127.34 46C127.287 46 127.239 45.984 127.196 45.952C127.164 45.9093 127.148 45.8613 127.148 45.808V34.992C127.148 34.9387 127.164 34.896 127.196 34.864C127.239 34.8213 127.287 34.8 127.34 34.8H129.212C129.265 34.8 129.308 34.8213 129.34 34.864C129.383 34.896 129.404 34.9387 129.404 34.992V45.808C129.404 45.8613 129.383 45.9093 129.34 45.952C129.308 45.984 129.265 46 129.212 46H127.34ZM138.471 46C138.364 46 138.295 45.9467 138.263 45.84L137.783 44.272C137.762 44.2293 137.735 44.208 137.703 44.208H133.767C133.735 44.208 133.708 44.2293 133.687 44.272L133.223 45.84C133.191 45.9467 133.122 46 133.015 46H130.983C130.919 46 130.871 45.984 130.839 45.952C130.807 45.9093 130.802 45.8507 130.823 45.776L134.279 34.96C134.311 34.8533 134.38 34.8 134.487 34.8H136.999C137.106 34.8 137.175 34.8533 137.207 34.96L140.663 45.776C140.674 45.7973 140.679 45.824 140.679 45.856C140.679 45.952 140.62 46 140.503 46H138.471ZM134.263 42.368C134.252 42.432 134.274 42.464 134.327 42.464H137.143C137.207 42.464 137.228 42.432 137.207 42.368L135.767 37.616C135.756 37.5733 135.74 37.5573 135.719 37.568C135.698 37.568 135.682 37.584 135.671 37.616L134.263 42.368ZM154.777 45.76C154.819 45.824 154.841 45.8667 154.841 45.888C154.841 45.9627 154.782 46 154.665 46H152.569C152.473 46 152.393 45.9627 152.329 45.888L151.705 45.216C151.683 45.184 151.646 45.1787 151.593 45.2C150.601 45.8187 149.534 46.128 148.393 46.128C147.39 46.128 146.553 45.8933 145.881 45.424C145.219 44.944 144.889 44.24 144.889 43.312C144.889 42.5973 145.081 41.9947 145.465 41.504C145.849 41.0133 146.371 40.5707 147.033 40.176C147.097 40.1333 147.102 40.096 147.049 40.064C146.515 39.4133 146.163 38.912 145.993 38.56C145.822 38.1973 145.737 37.8133 145.737 37.408C145.737 36.9067 145.87 36.448 146.137 36.032C146.414 35.6053 146.798 35.2747 147.289 35.04C147.79 34.7947 148.361 34.672 149.001 34.672C149.651 34.672 150.233 34.7947 150.745 35.04C151.267 35.2853 151.673 35.632 151.961 36.08C152.249 36.5173 152.392 37.0187 152.392 37.584C152.392 38.2453 152.206 38.8213 151.833 39.312C151.47 39.792 150.974 40.2293 150.345 40.624C150.291 40.656 150.286 40.6933 150.329 40.736L151.753 42.352C151.795 42.3947 151.838 42.3947 151.881 42.352C152.286 41.904 152.617 41.4773 152.873 41.072C152.937 40.9547 153.022 40.9333 153.128 41.008L154.521 41.792C154.638 41.856 154.665 41.9413 154.601 42.048C154.153 42.752 153.683 43.3653 153.193 43.888C153.161 43.92 153.171 43.968 153.225 44.032L154.777 45.76ZM149.049 36.72C148.729 36.72 148.473 36.8053 148.281 36.976C148.089 37.136 147.993 37.3547 147.993 37.632C147.993 37.7813 148.046 37.9467 148.153 38.128C148.259 38.3093 148.494 38.6187 148.857 39.056C148.878 39.0987 148.915 39.1093 148.969 39.088C149.353 38.8427 149.641 38.608 149.833 38.384C150.035 38.16 150.137 37.9093 150.137 37.632C150.137 37.3547 150.035 37.136 149.833 36.976C149.63 36.8053 149.369 36.72 149.049 36.72ZM148.473 44.24C148.985 44.24 149.561 44.0587 150.201 43.696C150.265 43.6533 150.27 43.616 150.217 43.584L149.721 43.024L149.353 42.624C149.118 42.3787 148.846 42.08 148.536 41.728C148.515 41.696 148.478 41.6907 148.424 41.712C148.041 41.9467 147.747 42.1707 147.545 42.384C147.342 42.5973 147.225 42.8427 147.193 43.12C147.182 43.152 147.177 43.2053 147.177 43.28C147.177 43.568 147.294 43.8027 147.529 43.984C147.774 44.1547 148.089 44.24 148.473 44.24ZM163.709 46.128C162.877 46.128 162.146 45.968 161.517 45.648C160.888 45.3173 160.402 44.8587 160.061 44.272C159.72 43.6853 159.549 43.008 159.549 42.24V38.544C159.549 37.776 159.72 37.0987 160.061 36.512C160.402 35.9253 160.888 35.472 161.517 35.152C162.146 34.832 162.877 34.672 163.709 34.672C164.53 34.672 165.25 34.8267 165.869 35.136C166.498 35.4347 166.984 35.8667 167.325 36.432C167.677 36.9867 167.853 37.632 167.853 38.368C167.853 38.464 167.789 38.5227 167.661 38.544L165.789 38.656H165.757C165.65 38.656 165.597 38.5973 165.597 38.48C165.597 37.9147 165.421 37.4613 165.069 37.12C164.728 36.7787 164.274 36.608 163.709 36.608C163.133 36.608 162.669 36.7787 162.317 37.12C161.976 37.4613 161.805 37.9147 161.805 38.48V42.336C161.805 42.8907 161.976 43.3387 162.317 43.68C162.669 44.0213 163.133 44.192 163.709 44.192C164.274 44.192 164.728 44.0213 165.069 43.68C165.421 43.3387 165.597 42.8907 165.597 42.336C165.597 42.2187 165.661 42.16 165.789 42.16L167.661 42.24C167.714 42.24 167.757 42.256 167.789 42.288C167.832 42.32 167.853 42.3573 167.853 42.4C167.853 43.136 167.677 43.7867 167.325 44.352C166.984 44.9173 166.498 45.3547 165.869 45.664C165.25 45.9733 164.53 46.128 163.709 46.128ZM173.491 46.176C172.659 46.176 171.923 46.0053 171.283 45.664C170.654 45.3227 170.163 44.848 169.811 44.24C169.459 43.6213 169.283 42.912 169.283 42.112V38.688C169.283 37.8987 169.459 37.2 169.811 36.592C170.163 35.984 170.654 35.5147 171.283 35.184C171.923 34.8427 172.659 34.672 173.491 34.672C174.334 34.672 175.07 34.8427 175.699 35.184C176.339 35.5147 176.835 35.984 177.187 36.592C177.539 37.2 177.715 37.8987 177.715 38.688V42.112C177.715 42.912 177.539 43.6213 177.187 44.24C176.835 44.8587 176.339 45.3387 175.699 45.68C175.07 46.0107 174.334 46.176 173.491 46.176ZM173.491 44.24C174.078 44.24 174.553 44.0533 174.915 43.68C175.278 43.3067 175.459 42.8107 175.459 42.192V38.672C175.459 38.0533 175.278 37.5573 174.915 37.184C174.563 36.8 174.089 36.608 173.491 36.608C172.905 36.608 172.43 36.8 172.067 37.184C171.715 37.5573 171.539 38.0533 171.539 38.672V42.192C171.539 42.8107 171.715 43.3067 172.067 43.68C172.43 44.0533 172.905 44.24 173.491 44.24ZM185.877 34.992C185.877 34.9387 185.893 34.896 185.925 34.864C185.967 34.8213 186.015 34.8 186.069 34.8H187.941C187.994 34.8 188.037 34.8213 188.069 34.864C188.111 34.896 188.133 34.9387 188.133 34.992V45.808C188.133 45.8613 188.111 45.9093 188.069 45.952C188.037 45.984 187.994 46 187.941 46H186.133C186.026 46 185.951 45.9573 185.909 45.872L181.765 39.024C181.743 38.992 181.722 38.9813 181.701 38.992C181.679 38.992 181.669 39.0133 181.669 39.056L181.701 45.808C181.701 45.8613 181.679 45.9093 181.637 45.952C181.605 45.984 181.562 46 181.509 46H179.637C179.583 46 179.535 45.984 179.493 45.952C179.461 45.9093 179.445 45.8613 179.445 45.808V34.992C179.445 34.9387 179.461 34.896 179.493 34.864C179.535 34.8213 179.583 34.8 179.637 34.8H181.445C181.551 34.8 181.626 34.8427 181.669 34.928L185.797 41.744C185.818 41.776 185.839 41.792 185.861 41.792C185.882 41.7813 185.893 41.7547 185.893 41.712L185.877 34.992ZM193.925 46.128C193.072 46.128 192.325 45.9947 191.685 45.728C191.045 45.4507 190.549 45.0613 190.197 44.56C189.856 44.048 189.685 43.456 189.685 42.784V42.432C189.685 42.3787 189.701 42.336 189.733 42.304C189.776 42.2613 189.824 42.24 189.877 42.24H191.701C191.755 42.24 191.797 42.2613 191.829 42.304C191.872 42.336 191.893 42.3787 191.893 42.432V42.672C191.893 43.0987 192.091 43.4613 192.485 43.76C192.88 44.048 193.413 44.192 194.085 44.192C194.651 44.192 195.072 44.0747 195.349 43.84C195.627 43.5947 195.765 43.296 195.765 42.944C195.765 42.688 195.68 42.4747 195.509 42.304C195.339 42.1227 195.104 41.968 194.805 41.84C194.517 41.7013 194.053 41.5147 193.413 41.28C192.699 41.0347 192.091 40.784 191.589 40.528C191.099 40.272 190.683 39.9253 190.341 39.488C190.011 39.04 189.845 38.4907 189.845 37.84C189.845 37.2 190.011 36.64 190.341 36.16C190.672 35.68 191.131 35.312 191.717 35.056C192.304 34.8 192.981 34.672 193.749 34.672C194.56 34.672 195.28 34.816 195.909 35.104C196.549 35.392 197.045 35.7973 197.397 36.32C197.76 36.832 197.941 37.4293 197.941 38.112V38.352C197.941 38.4053 197.92 38.4533 197.877 38.496C197.845 38.528 197.803 38.544 197.749 38.544H195.909C195.856 38.544 195.808 38.528 195.765 38.496C195.733 38.4533 195.717 38.4053 195.717 38.352V38.224C195.717 37.776 195.531 37.3973 195.157 37.088C194.795 36.768 194.293 36.608 193.653 36.608C193.152 36.608 192.757 36.7147 192.469 36.928C192.192 37.1413 192.053 37.4347 192.053 37.808C192.053 38.0747 192.133 38.2987 192.293 38.48C192.464 38.6613 192.709 38.8267 193.029 38.976C193.36 39.1147 193.867 39.3067 194.549 39.552C195.307 39.8293 195.899 40.0747 196.325 40.288C196.763 40.5013 197.152 40.8213 197.493 41.248C197.845 41.664 198.021 42.208 198.021 42.88C198.021 43.8827 197.653 44.6773 196.917 45.264C196.181 45.84 195.184 46.128 193.925 46.128ZM203.665 46.128C202.844 46.128 202.118 45.968 201.489 45.648C200.87 45.328 200.385 44.88 200.033 44.304C199.692 43.7173 199.521 43.0453 199.521 42.288V34.992C199.521 34.9387 199.537 34.896 199.569 34.864C199.612 34.8213 199.66 34.8 199.713 34.8H201.585C201.638 34.8 201.681 34.8213 201.713 34.864C201.756 34.896 201.777 34.9387 201.777 34.992V42.304C201.777 42.8693 201.948 43.328 202.289 43.68C202.641 44.0213 203.1 44.192 203.665 44.192C204.23 44.192 204.684 44.0213 205.025 43.68C205.377 43.328 205.553 42.8693 205.553 42.304V34.992C205.553 34.9387 205.569 34.896 205.601 34.864C205.644 34.8213 205.692 34.8 205.745 34.8H207.617C207.67 34.8 207.713 34.8213 207.745 34.864C207.788 34.896 207.809 34.9387 207.809 34.992V42.288C207.809 43.0453 207.633 43.7173 207.281 44.304C206.94 44.88 206.454 45.328 205.825 45.648C205.206 45.968 204.486 46.128 203.665 46.128ZM209.856 46C209.802 46 209.754 45.984 209.712 45.952C209.68 45.9093 209.664 45.8613 209.664 45.808V34.992C209.664 34.9387 209.68 34.896 209.712 34.864C209.754 34.8213 209.802 34.8 209.856 34.8H211.728C211.781 34.8 211.824 34.8213 211.856 34.864C211.898 34.896 211.92 34.9387 211.92 34.992V43.984C211.92 44.0373 211.946 44.064 212 44.064H217.232C217.285 44.064 217.328 44.0853 217.36 44.128C217.402 44.16 217.424 44.2027 217.424 44.256V45.808C217.424 45.8613 217.402 45.9093 217.36 45.952C217.328 45.984 217.285 46 217.232 46H209.856ZM225.22 34.8C225.273 34.8 225.316 34.8213 225.348 34.864C225.39 34.896 225.412 34.9387 225.412 34.992V36.56C225.412 36.6133 225.39 36.6613 225.348 36.704C225.316 36.736 225.273 36.752 225.22 36.752H222.356C222.302 36.752 222.276 36.7787 222.276 36.832V45.808C222.276 45.8613 222.254 45.9093 222.212 45.952C222.18 45.984 222.137 46 222.084 46H220.212C220.158 46 220.11 45.984 220.068 45.952C220.036 45.9093 220.02 45.8613 220.02 45.808V36.832C220.02 36.7787 219.993 36.752 219.94 36.752H217.156C217.102 36.752 217.054 36.736 217.012 36.704C216.98 36.6613 216.964 36.6133 216.964 36.56V34.992C216.964 34.9387 216.98 34.896 217.012 34.864C217.054 34.8213 217.102 34.8 217.156 34.8H225.22ZM230.382 46.176C229.55 46.176 228.814 46.0053 228.174 45.664C227.545 45.3227 227.054 44.848 226.702 44.24C226.35 43.6213 226.174 42.912 226.174 42.112V38.688C226.174 37.8987 226.35 37.2 226.702 36.592C227.054 35.984 227.545 35.5147 228.174 35.184C228.814 34.8427 229.55 34.672 230.382 34.672C231.225 34.672 231.961 34.8427 232.59 35.184C233.23 35.5147 233.726 35.984 234.078 36.592C234.43 37.2 234.606 37.8987 234.606 38.688V42.112C234.606 42.912 234.43 43.6213 234.078 44.24C233.726 44.8587 233.23 45.3387 232.59 45.68C231.961 46.0107 231.225 46.176 230.382 46.176ZM230.382 44.24C230.969 44.24 231.443 44.0533 231.806 43.68C232.169 43.3067 232.35 42.8107 232.35 42.192V38.672C232.35 38.0533 232.169 37.5573 231.806 37.184C231.454 36.8 230.979 36.608 230.382 36.608C229.795 36.608 229.321 36.8 228.958 37.184C228.606 37.5573 228.43 38.0533 228.43 38.672V42.192C228.43 42.8107 228.606 43.3067 228.958 43.68C229.321 44.0533 229.795 44.24 230.382 44.24ZM242.479 46C242.373 46 242.298 45.952 242.255 45.856L240.255 41.424C240.234 41.3813 240.202 41.36 240.159 41.36H238.671C238.618 41.36 238.591 41.3867 238.591 41.44V45.808C238.591 45.8613 238.57 45.9093 238.527 45.952C238.495 45.984 238.453 46 238.399 46H236.527C236.474 46 236.426 45.984 236.383 45.952C236.351 45.9093 236.335 45.8613 236.335 45.808V34.992C236.335 34.9387 236.351 34.896 236.383 34.864C236.426 34.8213 236.474 34.8 236.527 34.8H241.103C241.786 34.8 242.383 34.9387 242.895 35.216C243.418 35.4933 243.818 35.888 244.095 36.4C244.383 36.912 244.527 37.504 244.527 38.176C244.527 38.9013 244.346 39.5253 243.983 40.048C243.621 40.56 243.114 40.9227 242.463 41.136C242.41 41.1573 242.394 41.1947 242.415 41.248L244.591 45.776C244.613 45.8187 244.623 45.8507 244.623 45.872C244.623 45.9573 244.565 46 244.447 46H242.479ZM238.671 36.736C238.618 36.736 238.591 36.7627 238.591 36.816V39.552C238.591 39.6053 238.618 39.632 238.671 39.632H240.767C241.215 39.632 241.578 39.4987 241.855 39.232C242.143 38.9653 242.287 38.6187 242.287 38.192C242.287 37.7653 242.143 37.4187 241.855 37.152C241.578 36.8747 241.215 36.736 240.767 36.736H238.671ZM246.356 46C246.302 46 246.254 45.984 246.212 45.952C246.18 45.9093 246.164 45.8613 246.164 45.808V34.992C246.164 34.9387 246.18 34.896 246.212 34.864C246.254 34.8213 246.302 34.8 246.356 34.8H248.228C248.281 34.8 248.324 34.8213 248.356 34.864C248.398 34.896 248.42 34.9387 248.42 34.992V45.808C248.42 45.8613 248.398 45.9093 248.356 45.952C248.324 45.984 248.281 46 248.228 46H246.356ZM257.487 46C257.38 46 257.311 45.9467 257.279 45.84L256.799 44.272C256.777 44.2293 256.751 44.208 256.719 44.208H252.783C252.751 44.208 252.724 44.2293 252.703 44.272L252.239 45.84C252.207 45.9467 252.137 46 252.031 46H249.999C249.935 46 249.887 45.984 249.855 45.952C249.823 45.9093 249.817 45.8507 249.839 45.776L253.295 34.96C253.327 34.8533 253.396 34.8 253.503 34.8H256.015C256.121 34.8 256.191 34.8533 256.223 34.96L259.679 45.776C259.689 45.7973 259.695 45.824 259.695 45.856C259.695 45.952 259.636 46 259.519 46H257.487ZM253.279 42.368C253.268 42.432 253.289 42.464 253.343 42.464H256.159C256.223 42.464 256.244 42.432 256.223 42.368L254.783 37.616C254.772 37.5733 254.756 37.5573 254.735 37.568C254.713 37.568 254.697 37.584 254.687 37.616L253.279 42.368Z" fill="white"/>
<defs>
<clipPath id="clip0_31_247">
<rect width="47" height="40" fill="white" transform="translate(0 5)"/>
</clipPath>
</defs>
</svg>
