<svg width="47" height="40" viewBox="0 0 47 40" fill="none" xmlns="http://www.w3.org/2000/svg">
<path d="M34.3462 38.4123V39.9507H12.6538V38.4123C12.6538 37.5646 13.4655 36.8738 14.4615 36.8738H18.1004C18.1962 34.9538 19.6605 33.3507 21.6923 32.7369V14.6984C20.7397 14.1861 20.1015 13.2877 20.1015 12.2569H21.6923H25.3077H26.8985C26.8985 13.2877 26.2603 14.1861 25.3077 14.6984V32.7353C27.3395 33.3492 28.8038 34.9523 28.8996 36.8723H32.5385C33.5345 36.8738 34.3462 37.5646 34.3462 38.4123ZM47 24.5646C45.675 27.74 42.1463 30.0307 37.9615 30.0307C33.7767 30.0307 30.2481 27.7384 28.9231 24.5646H31.0092L37.1155 10.7907C37.3795 10.1907 38.5418 10.1907 38.8075 10.7907L44.9139 24.5646H47ZM42.9815 24.5646L37.9615 13.243L32.9416 24.5661H42.9815V24.5646ZM9.03846 9.19689C9.85735 9.19689 10.5244 8.73073 10.7558 8.09842C11.3541 7.90458 11.9669 7.64304 12.596 7.37227C13.9789 6.77842 15.5462 6.10304 17.1731 6.10304C18.7349 6.10304 19.7111 6.71689 20.2697 7.23996C20.248 7.37227 20.2227 7.50458 20.2227 7.6415C20.2227 9.1815 21.6905 10.4307 23.5 10.4307C25.3095 10.4307 26.7773 9.1815 26.7773 7.6415C26.7773 7.50458 26.752 7.37381 26.7303 7.2415C27.2871 6.71996 28.2633 6.10304 29.8269 6.10304C31.4538 6.10304 33.0211 6.77689 34.4022 7.37073C35.0331 7.6415 35.6459 7.90304 36.2442 8.09689C36.4756 8.72919 37.1427 9.19535 37.9615 9.19535C38.9702 9.19535 39.7873 8.49996 39.7873 7.6415C39.7873 6.78304 38.9702 6.08766 37.9615 6.08766C37.4409 6.08766 36.9763 6.27842 36.6437 6.57689C36.1972 6.41689 35.7146 6.21227 35.2175 5.99842C33.6556 5.32612 31.8859 4.56458 29.8269 4.56458C28.0265 4.56458 26.7719 5.14766 25.9205 5.77535C25.5391 5.41689 25.051 5.14919 24.496 4.99689C25.1703 4.68919 25.6439 4.10304 25.6439 3.40919C25.6439 2.4015 23.5 0.0491943 23.5 0.0491943C23.5 0.0491943 21.3561 2.4015 21.3561 3.40919C21.3561 4.10458 21.8297 4.68919 22.504 4.99689C21.949 5.14766 21.4609 5.41689 21.0795 5.77535C20.2281 5.14766 18.9735 4.56458 17.1731 4.56458C15.1141 4.56458 13.3426 5.32612 11.7807 5.99842C11.2836 6.21381 10.8028 6.41842 10.3563 6.57689C10.0237 6.27996 9.55908 6.08766 9.03846 6.08766C8.02977 6.08766 7.21269 6.78304 7.21269 7.6415C7.21269 8.49996 8.02977 9.19689 9.03846 9.19689ZM9.03846 30.0323C4.85365 30.0323 1.32504 27.74 0 24.5661H2.08608L8.19246 10.7923C8.45638 10.1923 9.61873 10.1923 9.88446 10.7923L15.9908 24.5661H18.0769C16.7519 27.74 13.2233 30.0323 9.03846 30.0323ZM14.0584 24.5646L9.03846 13.243L4.0185 24.5661H14.0584V24.5646Z" fill="white"/>
</svg>
