<svg width="41" height="40" viewBox="0 0 41 40" fill="none" xmlns="http://www.w3.org/2000/svg">
<path fill-rule="evenodd" clip-rule="evenodd" d="M2.64172 18.3333H0.5V15C1.38723 14.9983 1.92539 14.5367 2.0672 13.8917C3.22533 9.79 7.81967 0 20.2482 0C32.7713 0 37.491 10.225 38.9637 14.0217C39.2364 14.7233 39.7982 14.995 40.4982 14.995L40.5 18.3333H38.3546C39.4 19.0983 40.4982 20.6 40.4982 23.5517C40.4982 26.2683 38.8546 29.695 35.2675 31.1033C31.3531 36.845 26.1279 40 20.4991 40C14.8703 40 9.64504 36.845 5.73067 31.1033C2.14174 29.695 0.5 26.2683 0.5 23.5517C0.5 20.6 1.59631 19.0983 2.64172 18.3333ZM24.4989 30.765H16.4993C16.5065 30.785 17.6374 33.665 20.4991 33.665C23.4699 33.665 24.4916 30.785 24.4989 30.765ZM32.7113 18.3333H8.2851L8.26147 19.1917C8.26147 20.305 7.02152 21.0483 5.91975 20.5983C5.61249 20.4733 5.13797 20.4767 4.79799 20.68C3.13079 21.6817 3.31078 27.12 7.38878 28.395C9.05416 28.9167 11.6868 33.5667 14.5339 29.0583C15.5193 27.5017 18.6264 27.3267 20.4991 28.5633C22.3699 27.3267 25.4789 27.5017 26.4625 29.0583C29.3096 33.5667 31.9422 28.9167 33.6094 28.395C37.6892 27.12 37.8656 21.6817 36.1984 20.68C35.8075 20.4467 35.313 20.5033 35.0784 20.5983C33.9767 21.05 32.7349 20.305 32.7349 19.1917L32.7113 18.3333ZM15.083 19.9933C13.9303 19.9933 12.9994 21.0267 12.9994 22.3017C12.9994 23.5767 13.9303 24.61 15.083 24.61C16.232 24.61 17.1665 23.5767 17.1665 22.3017C17.1665 21.0267 16.232 19.9933 15.083 19.9933ZM27.9987 22.3017C27.9987 23.5767 27.0661 24.61 25.9152 24.61C24.7644 24.61 23.8317 23.5767 23.8317 22.3017C23.8317 21.0267 24.7644 19.9933 25.9152 19.9933C27.0661 19.9933 27.9987 21.0267 27.9987 22.3017ZM18.681 3.405C17.3447 3.53 16.1357 3.81167 15.0448 4.21V10C15.0448 10.92 14.2303 11.6667 13.2267 11.6667C12.2231 11.6667 11.4086 10.92 11.4086 10V6.21833C7.49423 9.24667 5.98157 13.74 5.60886 15H35.4166C34.8112 13.3233 33.2549 9.23333 29.5896 6.37167V10C29.5896 10.92 28.7751 11.6667 27.7715 11.6667C26.7679 11.6667 25.9534 10.92 25.9534 10V4.32333C24.8643 3.91 23.6553 3.605 22.3172 3.45V8.33333C22.3172 9.25333 21.5027 10 20.4991 10C19.4955 10 18.681 9.25333 18.681 8.33333V3.405Z" fill="white"/>
</svg>
