<svg width="40" height="40" viewBox="0 0 40 40" fill="none" xmlns="http://www.w3.org/2000/svg">
<g clip-path="url(#clip0_31_109)">
<path fill-rule="evenodd" clip-rule="evenodd" d="M31.6667 36.6667H35V16.7817C33.0667 15.5267 30.8083 14.2667 28.6417 13.3617C29.19 12.455 29.5983 11.38 29.8033 10.2333C32.8383 11.4833 35.635 13.155 38.3333 15V36.6667H40V40H0V36.6667H1.66667V15C4.35833 13.1933 7.16333 11.5333 10.2033 10.2833C10.4317 11.39 10.8483 12.4383 11.4167 13.3883C9.15 14.3267 7.06 15.5 5.01833 16.7883L5 16.8V36.6667H8.33333V28.3333H31.6667V36.6667ZM11.6667 38.3333H16.6667V31.6667H11.6667V38.3333ZM18.3333 38.3333H21.6667V31.6667H18.3333V38.3333ZM23.3333 38.3333H28.3333V31.6667H23.3333V38.3333ZM8.33333 26.6667H11.6667V23.3333H8.33333V26.6667ZM15 26.6667H18.3333V23.3333H15V26.6667ZM21.6667 26.6667H25V23.3333H21.6667V26.6667ZM28.3333 26.6667H31.6667V23.3333H28.3333V26.6667ZM8.33333 21.6667H11.6667V18.3333H8.33333V21.6667ZM15 21.6667H18.3333V18.3333H15V21.6667ZM21.6667 21.6667H25V18.3333H21.6667V21.6667ZM28.3333 21.6667H31.6667V18.3333H28.3333V21.6667ZM20 0C24.6 0 28.3333 3.73333 28.3333 8.33333C28.3333 12.9333 24.6 16.6667 20 16.6667C15.4 16.6667 11.6667 12.9333 11.6667 8.33333C11.6667 3.73333 15.4 0 20 0ZM21.6667 6.66667V3.33333H18.3333V6.66667H15V10H18.3333V13.3333H21.6667V10H25V6.66667H21.6667Z" fill="white"/>
</g>
<defs>
<clipPath id="clip0_31_109">
<rect width="40" height="40" fill="white"/>
</clipPath>
</defs>
</svg>
