<svg width="40" height="40" viewBox="0 0 40 40" fill="none" xmlns="http://www.w3.org/2000/svg">
<path d="M20.0017 14.9999C18.6756 14.9999 17.4038 15.5267 16.4661 16.4644C15.5284 17.4021 15.0017 18.6738 15.0017 19.9999C15.0017 21.326 15.5284 22.5978 16.4661 23.5355C17.4038 24.4731 18.6756 24.9999 20.0017 24.9999C21.3277 24.9999 22.5995 24.4731 23.5372 23.5355C24.4749 22.5978 25.0017 21.326 25.0017 19.9999C25.0017 18.6738 24.4749 17.4021 23.5372 16.4644C22.5995 15.5267 21.3277 14.9999 20.0017 14.9999ZM20.0017 11.6666C22.2118 11.6666 24.3314 12.5446 25.8942 14.1074C27.457 15.6702 28.335 17.7898 28.335 19.9999C28.335 22.2101 27.457 24.3297 25.8942 25.8925C24.3314 27.4553 22.2118 28.3333 20.0017 28.3333C17.7915 28.3333 15.6719 27.4553 14.1091 25.8925C12.5463 24.3297 11.6683 22.2101 11.6683 19.9999C11.6683 17.7898 12.5463 15.6702 14.1091 14.1074C15.6719 12.5446 17.7915 11.6666 20.0017 11.6666ZM30.835 11.2499C30.835 11.8025 30.6155 12.3324 30.2248 12.7231C29.8341 13.1138 29.3042 13.3333 28.7517 13.3333C28.1991 13.3333 27.6692 13.1138 27.2785 12.7231C26.8878 12.3324 26.6683 11.8025 26.6683 11.2499C26.6683 10.6974 26.8878 10.1675 27.2785 9.77678C27.6692 9.38608 28.1991 9.16658 28.7517 9.16658C29.3042 9.16658 29.8341 9.38608 30.2248 9.77678C30.6155 10.1675 30.835 10.6974 30.835 11.2499ZM20.0017 6.66659C15.8783 6.66659 15.205 6.67825 13.2867 6.76325C11.98 6.82492 11.1033 6.99992 10.29 7.31659C9.60972 7.5672 8.99453 7.96764 8.48999 8.48825C7.96878 8.99262 7.56776 9.60782 7.31666 10.2883C6.99999 11.1049 6.82499 11.9799 6.76499 13.2849C6.67833 15.1249 6.66666 15.7683 6.66666 19.9999C6.66666 24.1249 6.67833 24.7966 6.76333 26.7149C6.825 28.0199 6.99999 28.8983 7.31499 29.7099C7.59833 30.4349 7.93166 30.9566 8.48499 31.5099C9.04666 32.0699 9.56833 32.4049 10.285 32.6816C11.1083 32.9999 11.985 33.1766 13.285 33.2366C15.125 33.3232 15.7683 33.3333 20 33.3333C24.125 33.3333 24.7967 33.3216 26.715 33.2366C28.0183 33.1749 28.895 32.9999 29.71 32.6849C30.3903 32.4343 31.0055 32.0339 31.51 31.5133C32.0717 30.9533 32.4067 30.4316 32.6833 29.7132C33 28.8932 33.1767 28.0166 33.2367 26.7133C33.3233 24.8749 33.3333 24.2299 33.3333 19.9999C33.3333 15.8766 33.3217 15.2033 33.2367 13.2849C33.175 11.9816 32.9983 11.1016 32.6833 10.2883C32.4327 9.60797 32.0323 8.99279 31.5117 8.48825C31.0073 7.96704 30.3921 7.56602 29.7117 7.31492C28.895 6.99825 28.0183 6.82325 26.715 6.76325C24.8767 6.67659 24.2333 6.66659 20 6.66659M20 3.33325C24.5283 3.33325 25.0933 3.34992 26.8717 3.43325C28.645 3.51659 29.855 3.79492 30.9167 4.20825C32.0167 4.63159 32.9433 5.20492 33.87 6.12992C34.7178 6.96281 35.3736 7.97071 35.7917 9.08325C36.2033 10.1449 36.4833 11.3549 36.5667 13.1299C36.645 14.9066 36.6667 15.4716 36.6667 19.9999C36.6667 24.5283 36.65 25.0933 36.5667 26.8699C36.4833 28.6466 36.2033 29.8533 35.7917 30.9166C35.3736 32.0291 34.7178 33.037 33.87 33.8699C33.0371 34.7177 32.0292 35.3736 30.9167 35.7916C29.855 36.2033 28.645 36.4833 26.8717 36.5666C25.0933 36.6449 24.5283 36.6666 20 36.6666C15.4717 36.6666 14.9067 36.6499 13.1283 36.5666C11.355 36.4833 10.1467 36.2033 9.08333 35.7916C7.97078 35.3736 6.96288 34.7177 6.12999 33.8699C5.28217 33.037 4.62635 32.0291 4.20833 30.9166C3.795 29.8549 3.51666 28.6449 3.43333 26.8699C3.35333 25.0933 3.33333 24.5283 3.33333 19.9999C3.33333 15.4716 3.34999 14.9066 3.43333 13.1299C3.51666 11.3533 3.795 10.1466 4.20833 9.08325C4.62635 7.97071 5.28217 6.96281 6.12999 6.12992C6.96288 5.2821 7.97078 4.62628 9.08333 4.20825C10.145 3.79492 11.3533 3.51659 13.1283 3.43325C14.9083 3.35492 15.4733 3.33325 20.0017 3.33325" fill="white"/>
</svg>
