<svg width="40" height="40" viewBox="0 0 40 40" fill="none" xmlns="http://www.w3.org/2000/svg">
<path d="M31.75 8.18334C30.2218 6.64019 28.4017 5.41662 26.3959 4.58395C24.39 3.75127 22.2385 3.32615 20.0667 3.33334C10.9667 3.33334 3.55001 10.75 3.55001 19.85C3.55001 22.7667 4.31667 25.6 5.75001 28.1L3.41667 36.6667L12.1667 34.3667C14.5833 35.6833 17.3 36.3833 20.0667 36.3833C29.1667 36.3833 36.5833 28.9667 36.5833 19.8667C36.5833 15.45 34.8667 11.3 31.75 8.18334ZM20.0667 33.5833C17.6 33.5833 15.1833 32.9167 13.0667 31.6667L12.5667 31.3667L7.36667 32.7333L8.75001 27.6667L8.41667 27.15C7.04592 24.9618 6.31821 22.4321 6.31667 19.85C6.31667 12.2833 12.4833 6.11668 20.05 6.11668C23.7167 6.11668 27.1667 7.55001 29.75 10.15C31.0294 11.4231 32.0432 12.9376 32.7327 14.6056C33.4222 16.2735 33.7737 18.0618 33.7667 19.8667C33.8 27.4333 27.6333 33.5833 20.0667 33.5833ZM27.6 23.3167C27.1833 23.1167 25.15 22.1167 24.7833 21.9667C24.4 21.8333 24.1333 21.7667 23.85 22.1667C23.5667 22.5833 22.7833 23.5167 22.55 23.7833C22.3167 24.0667 22.0667 24.1 21.65 23.8833C21.2333 23.6833 19.9 23.2333 18.3333 21.8333C17.1 20.7333 16.2833 19.3833 16.0333 18.9667C15.8 18.55 16 18.3333 16.2167 18.1167C16.4 17.9333 16.6333 17.6333 16.8333 17.4C17.0333 17.1667 17.1167 16.9833 17.25 16.7167C17.3833 16.4333 17.3167 16.2 17.2167 16C17.1167 15.8 16.2833 13.7667 15.95 12.9333C15.6167 12.1333 15.2667 12.2333 15.0167 12.2167H14.2167C13.9333 12.2167 13.5 12.3167 13.1167 12.7333C12.75 13.15 11.6833 14.15 11.6833 16.1833C11.6833 18.2167 13.1667 20.1833 13.3667 20.45C13.5667 20.7333 16.2833 24.9 20.4167 26.6833C21.4 27.1167 22.1667 27.3667 22.7667 27.55C23.75 27.8667 24.65 27.8167 25.3667 27.7167C26.1667 27.6 27.8167 26.7167 28.15 25.75C28.5 24.7833 28.5 23.9667 28.3833 23.7833C28.2667 23.6 28.0167 23.5167 27.6 23.3167Z" fill="white"/>
</svg>
